<svg viewBox="0 0 32 32" xmlns="http://www.w3.org/2000/svg">
 <g>
  <title>Layer 1</title>
  <g stroke="null" id="svg_2">
   <path stroke="null" id="svg_3" class="st0" d="m11.25977,14.04996l4.02933,3.11811l0.05607,0.03223l0.02511,0.01409c0.34845,0.19465 0.80971,0.09147 1.11726,-0.24808l0.02685,-0.02581l4.93843,-5.86087c0.28119,-0.31611 0.28586,-0.77119 0.01231,-1.01516c-0.27417,-0.24453 -0.72375,-0.18586 -1.00382,0.13018l-4.61621,4.94666l-3.56391,-2.48945c-0.33328,-0.24628 -0.83308,-0.13193 -1.11552,0.25451c-0.28182,0.38531 -0.24036,0.89788 0.0941,1.14359l0,0z" fill="currentColor"/>
   <path stroke="null" id="svg_4" class="st0" d="m6.24296,15.96057c0,-0.2141 0.00466,-0.42808 0.02722,-0.63807l-2.52944,0c-0.01548,0.20993 -0.01958,0.42397 -0.01958,0.63807c0,0.21816 0.0041,0.42871 0.01958,0.6392l2.52944,0c-0.02256,-0.21049 -0.02722,-0.42397 -0.02722,-0.6392z" fill="currentColor"/>
   <path stroke="null" id="svg_6" class="st0" d="m10.71665,7.78089c0.23911,-0.15188 0.4832,-0.29497 0.73108,-0.42222l0.09647,-0.04695l-1.26053,-2.1956c-0.31538,0.15949 -0.62262,0.33656 -0.92078,0.53071l1.26109,2.19678l0.09268,-0.06272l0,0z" fill="currentColor"/>
   <path stroke="null" id="svg_7" class="st0" d="m5.10091,10.31492l2.18976,1.26436l0.53001,-0.92244l-2.19063,-1.26499c-0.19355,0.29909 -0.36983,0.6064 -0.52913,0.92307z" fill="currentColor"/>
   <path stroke="null" id="svg_8" class="st0" d="m24.48828,20.43868c-0.13152,0.24927 -0.26982,0.49318 -0.4254,0.72954l-0.06309,0.09265l2.19038,1.26492c0.1938,-0.29909 0.37033,-0.60229 0.53342,-0.91839l-2.18479,-1.2691l-0.05053,0.10038l0,0z" fill="currentColor"/>
   <path stroke="null" id="svg_9" class="st0" d="m7.33685,20.43456l-0.05059,-0.0962l-2.18535,1.26443c0.15551,0.31611 0.33552,0.62398 0.52907,0.92307l2.19063,-1.26492l-0.06377,-0.09265c-0.15104,-0.23642 -0.29369,-0.48033 -0.41999,-0.73372z" fill="currentColor"/>
   <path stroke="null" id="svg_10" class="st0" d="m10.71665,24.13675l-0.09268,-0.06328l-1.26109,2.19734c0.29823,0.19415 0.6054,0.37534 0.92078,0.53545l1.26053,-2.19678l-0.09647,-0.04689c-0.24794,-0.12675 -0.49203,-0.26984 -0.73108,-0.42584l0,0z" fill="currentColor"/>
   <path stroke="null" id="svg_11" class="st0" d="m20.27589,7.30823l0.92053,0.53545l1.26078,-2.19678c-0.29791,-0.19415 -0.6013,-0.37122 -0.91556,-0.53071l-1.26575,2.19205l0,0z" fill="currentColor"/>
   <path stroke="null" id="svg_12" class="st0" d="m15.27587,25.63273l0,2.53409c0.2099,0.0187 0.42266,0.02282 0.63579,0.02282c0.21394,0 0.42707,-0.00411 0.63635,-0.02282l0,-2.53409l0,-0.02637l-1.27215,0l0,0.02637z" fill="currentColor"/>
   <path stroke="null" id="svg_13" class="st0" d="m16.54802,6.28958l0,-2.53403c-0.20928,-0.01883 -0.42241,-0.02288 -0.63635,-0.02288c-0.21313,0 -0.42589,0.00405 -0.63579,0.02288l0,2.53403l0,0.02637l1.27215,0l0,-0.02637z" fill="currentColor"/>
   <path stroke="null" id="svg_14" class="st0" d="m20.27589,24.61352l1.26575,2.19267c0.31426,-0.16479 0.61765,-0.3413 0.91556,-0.53545l-1.26078,-2.19734l-0.92053,0.54012l0,0z" fill="currentColor"/>
   <path stroke="null" id="svg_15" class="st0" d="m26.7236,10.31492c-0.15987,-0.31667 -0.33968,-0.62392 -0.53342,-0.92307l-2.19038,1.26499l0.53461,0.92244l2.1892,-1.26436l0,0z" fill="currentColor"/>
   <path stroke="null" id="svg_16" class="st0" d="m28.08345,15.32255l-2.52913,0l-0.02629,0l0,1.27727l0.02629,0l2.52913,0c0.01579,-0.21049 0.01933,-0.42397 0.01933,-0.6392c-0.00006,-0.2141 -0.00354,-0.42815 -0.01933,-0.63807l0,0z" fill="currentColor"/>
   <path stroke="null" id="svg_17" class="st0" d="m15.91166,0c-8.78851,0.00056 -15.9111,7.14575 -15.91166,15.96119c0.00056,8.81544 7.12316,15.96057 15.91166,15.96119c8.78851,-0.00062 15.9111,-7.14575 15.91166,-15.96119c-0.00056,-8.81544 -7.12316,-15.96063 -15.91166,-15.96119zm0,29.86276c-3.8305,-0.00062 -7.28893,-1.5541 -9.7996,-4.07166c-2.50955,-2.51931 -4.05855,-5.98819 -4.05886,-9.82991c0.00031,-3.84178 1.5493,-7.31116 4.0588,-9.82935c2.51074,-2.51825 5.96917,-4.07172 9.79966,-4.07229c3.82994,0.00062 7.2883,1.5541 9.7996,4.07229c2.50955,2.51819 4.05855,5.98694 4.0588,9.82935c-0.00031,3.84172 -1.5493,7.3106 -4.0588,9.82991c-2.51129,2.51763 -5.96966,4.0711 -9.7996,4.07166l0,0z" fill="currentColor"/>
  </g>
  <path transform="rotate(-32.8771 16.2001 14.8003)" stroke="currentColor" fill="currentColor" opacity="NaN" d="m3.02366,7.17571l0.88681,-0.70129c0.10642,-0.06044 0.15768,-0.12089 0.29719,-0.13669c0.10653,-0.01302 0.25165,0.06882 0.35818,0.11719c-0.03568,-0.01382 15.84424,6.2999 15.8251,6.2805c0.01914,0.0194 5.2154,-0.96714 5.12726,-0.91672c-0.08814,0.05042 0.53957,-0.37069 1.46479,-0.46822c0.92522,-0.09752 1.27246,-0.0388 1.5229,0.0001c0.25044,0.0389 0.77115,0.3862 0.79029,0.39009c0.01914,0.00389 1.79394,0.31197 1.83249,0.99463c0.03855,0.68266 -0.56045,1.2483 -0.57959,1.2289c0.01914,0.0194 -0.5784,0.48751 -1.61927,0.8386c-1.04087,0.35108 -2.23595,0.72167 -2.25508,0.70227c0.01914,0.0194 -1.40724,0.33147 -2.40956,0.52652c-1.00232,0.19505 -2.13957,0.33158 -2.15871,0.31218c0.01914,0.0194 -2.52314,5.58806 -2.83169,6.1926c-0.30855,0.60454 -0.34861,0.48995 -0.52223,0.62638c-0.17362,0.13643 -1.14076,0.0975 -1.31291,0.09289l-0.03637,-4.18122c0.01914,0.0194 -1.86957,-1.57977 -1.88899,-1.59938c-0.01942,-0.01961 -2.27464,0.21445 -3.10348,0.23395c-0.82884,0.0195 -4.43306,-0.0583 -4.49103,-0.07791c-0.05796,-0.01961 -0.25072,0.97513 -0.26985,0.95573c0.01914,0.0194 -0.11579,0.29247 -0.15434,0.4485c-0.03855,0.15604 -0.69392,0.19505 -0.71305,0.17565c0.01914,0.0194 -1.58044,-2.04788 -1.56131,-2.02848c0.01914,0.0194 -1.00246,-0.05862 -1.07956,-0.27317c-0.0771,-0.21455 0.28913,-0.64365 0.26999,-0.66305c0.01914,0.0194 -3.12275,-2.98432 -3.14189,-3.00372c0.01914,0.0194 -0.05797,-0.05862 0.44319,-0.23416c0.50116,-0.17554 0.79057,-0.0388 0.80971,-0.0194c0.01914,0.0194 3.0261,1.56027 3.00696,1.54087c0.01914,0.0194 -0.13507,-2.45769 -0.1542,-2.47709c0.01914,0.0194 0.61695,-0.07791 0.63609,-0.05851c0.01914,0.0194 0.28899,-0.01961 0.65522,0.21445c0.36623,0.23406 2.3756,2.4623 2.37101,2.45769c-0.00459,-0.00461 3.75884,-0.58504 3.77798,-0.56564c0.01914,0.0194 -1.61899,-1.7118 -1.59986,-1.71641c0.01914,-0.00461 -5.995,-3.72643 -8.19218,-5.20862l0,0z" id="svg_5" stroke-opacity="0"/>
 </g>

</svg>