<svg viewBox="0 0 32 32" xmlns="http://www.w3.org/2000/svg">
 <g>
  <title>Layer 1</title>
  <path transform="rotate(-25.4109 17.2688 15.1202)"  id="svg_5" d="m3.20241,7.07634l0.9467,-0.73985c0.1136,-0.06377 0.16833,-0.12754 0.31726,-0.14421c0.11372,-0.01374 0.26865,0.07261 0.38237,0.12363c-0.03809,-0.01458 16.91437,6.64635 16.89394,6.62588c0.02043,0.02047 5.56765,-1.02032 5.47356,-0.96713c-0.0941,0.05319 0.57601,-0.39108 1.56372,-0.49396c0.98771,-0.10289 1.3584,-0.04093 1.62575,0.00011c0.26736,0.04104 0.82324,0.40744 0.84367,0.41154c0.02043,0.00411 1.91511,0.32913 1.95626,1.04933c0.04115,0.7202 -0.59831,1.31695 -0.61874,1.29648c0.02043,0.02047 -0.61747,0.51432 -1.72864,0.88471c-1.11117,0.37039 -2.38696,0.76136 -2.40739,0.74089c0.02043,0.02047 -1.50229,0.3497 -2.57231,0.55548c-1.07002,0.20577 -2.28408,0.34981 -2.30451,0.32935c0.02043,0.02047 -2.69356,5.89537 -3.02294,6.53315c-0.32939,0.63778 -0.37216,0.5169 -0.55751,0.66083c-0.18534,0.14393 -1.21781,0.10286 -1.40159,0.098l-0.03882,-4.41116c0.02043,0.02047 -1.99585,-1.66665 -2.01657,-1.68734c-0.02073,-0.02069 -2.42827,0.22624 -3.31309,0.24682c-0.88482,0.02058 -4.73248,-0.06151 -4.79436,-0.0822c-0.06188,-0.02069 -0.26765,1.02875 -0.28808,1.00829c0.02043,0.02047 -0.12361,0.30855 -0.16477,0.47317c-0.04115,0.16462 -0.74078,0.20577 -0.76121,0.18531c0.02043,0.02047 -1.68719,-2.1605 -1.66676,-2.14004c0.02043,0.02047 -1.07017,-0.06184 -1.15248,-0.28819c-0.08231,-0.22635 0.30866,-0.67905 0.28823,-0.69952c0.02043,0.02047 -3.33367,-3.14843 -3.3541,-3.1689c0.02043,0.02047 -0.06188,-0.06184 0.47313,-0.24704c0.53501,-0.1852 0.84397,-0.04093 0.8644,-0.02047c0.02043,0.02047 3.23048,1.64607 3.21006,1.6256c0.02043,0.02047 -0.14419,-2.59285 -0.16462,-2.61331c0.02043,0.02047 0.65862,-0.0822 0.67905,-0.06173c0.02043,0.02047 0.30851,-0.02069 0.69948,0.22624c0.39097,0.24693 2.53605,2.59771 2.53115,2.59285c-0.0049,-0.00486 4.01272,-0.61721 4.03315,-0.59674c0.02043,0.02047 -1.72834,-1.80594 -1.70791,-1.8108c0.02043,-0.00486 -6.3999,-3.93135 -8.74549,-5.49506z" opacity="undefined" fill="currentColor"/>
 </g>

</svg>